<mxfile host="app.diagrams.net" agent="Mozilla/5.0 (Windows NT 10.0; Win64; x64) AppleWebKit/537.36 (KHTML, like Gecko) Chrome/131.0.0.0 Safari/537.36 Edg/131.0.0.0" version="25.0.3">
  <diagram id="C5RBs43oDa-KdzZeNtuy" name="Page-1">
    <mxGraphModel dx="3727" dy="681" grid="1" gridSize="10" guides="1" tooltips="1" connect="1" arrows="1" fold="1" page="1" pageScale="1" pageWidth="827" pageHeight="1169" math="0" shadow="0">
      <root>
        <mxCell id="WIyWlLk6GJQsqaUBKTNV-0" />
        <mxCell id="WIyWlLk6GJQsqaUBKTNV-1" parent="WIyWlLk6GJQsqaUBKTNV-0" />
        <mxCell id="mvioNwK95yMqdUQ73LqQ-36" value="" style="swimlane;fontFamily=Sarabun;fontSource=https%3A%2F%2Ffonts.googleapis.com%2Fcss%3Ffamily%3DSarabun;" parent="WIyWlLk6GJQsqaUBKTNV-1" vertex="1">
          <mxGeometry x="-2340" y="60" width="2230" height="2510" as="geometry" />
        </mxCell>
        <mxCell id="JBCHaNcfTczLMrVH9G6V-0" style="edgeStyle=orthogonalEdgeStyle;rounded=0;orthogonalLoop=1;jettySize=auto;html=1;exitX=0.5;exitY=1;exitDx=0;exitDy=0;" parent="mvioNwK95yMqdUQ73LqQ-36" source="mvioNwK95yMqdUQ73LqQ-35" edge="1">
          <mxGeometry relative="1" as="geometry">
            <mxPoint x="320.2758620689656" y="130" as="targetPoint" />
          </mxGeometry>
        </mxCell>
        <mxCell id="mvioNwK95yMqdUQ73LqQ-35" value="&lt;font data-font-src=&quot;https://fonts.googleapis.com/css?family=Sarabun&quot; face=&quot;Sarabun&quot;&gt;Start&lt;/font&gt;" style="ellipse;whiteSpace=wrap;html=1;" parent="mvioNwK95yMqdUQ73LqQ-36" vertex="1">
          <mxGeometry x="255" y="40" width="130" height="30" as="geometry" />
        </mxCell>
        <mxCell id="yDPij8MBY7NgReRULdWM-48" value="&lt;font face=&quot;Sarabun&quot;&gt;End&lt;/font&gt;" style="ellipse;whiteSpace=wrap;html=1;" parent="mvioNwK95yMqdUQ73LqQ-36" vertex="1">
          <mxGeometry x="270" y="2140" width="130" height="30" as="geometry" />
        </mxCell>
        <mxCell id="5R8K-BHqgLehRHtkmt9--1" style="edgeStyle=orthogonalEdgeStyle;rounded=0;orthogonalLoop=1;jettySize=auto;html=1;" edge="1" parent="mvioNwK95yMqdUQ73LqQ-36" source="5R8K-BHqgLehRHtkmt9--0">
          <mxGeometry relative="1" as="geometry">
            <mxPoint x="320" y="310" as="targetPoint" />
          </mxGeometry>
        </mxCell>
        <mxCell id="5R8K-BHqgLehRHtkmt9--0" value="Read n" style="shape=parallelogram;perimeter=parallelogramPerimeter;whiteSpace=wrap;html=1;fixedSize=1;" vertex="1" parent="mvioNwK95yMqdUQ73LqQ-36">
          <mxGeometry x="220" y="130" width="200" height="80" as="geometry" />
        </mxCell>
        <mxCell id="5R8K-BHqgLehRHtkmt9--3" style="edgeStyle=orthogonalEdgeStyle;rounded=0;orthogonalLoop=1;jettySize=auto;html=1;" edge="1" parent="mvioNwK95yMqdUQ73LqQ-36" source="5R8K-BHqgLehRHtkmt9--2">
          <mxGeometry relative="1" as="geometry">
            <mxPoint x="320" y="460" as="targetPoint" />
          </mxGeometry>
        </mxCell>
        <mxCell id="5R8K-BHqgLehRHtkmt9--2" value="userinput = n (store for keep result user input)&lt;div&gt;count= 1 ( for count 1 to n)&lt;/div&gt;" style="rounded=0;whiteSpace=wrap;html=1;" vertex="1" parent="mvioNwK95yMqdUQ73LqQ-36">
          <mxGeometry x="195" y="310" width="250" height="60" as="geometry" />
        </mxCell>
        <mxCell id="5R8K-BHqgLehRHtkmt9--6" style="edgeStyle=orthogonalEdgeStyle;rounded=0;orthogonalLoop=1;jettySize=auto;html=1;" edge="1" parent="mvioNwK95yMqdUQ73LqQ-36" source="5R8K-BHqgLehRHtkmt9--4">
          <mxGeometry relative="1" as="geometry">
            <mxPoint x="320" y="650" as="targetPoint" />
          </mxGeometry>
        </mxCell>
        <mxCell id="5R8K-BHqgLehRHtkmt9--87" style="edgeStyle=orthogonalEdgeStyle;rounded=0;orthogonalLoop=1;jettySize=auto;html=1;entryX=0.5;entryY=0;entryDx=0;entryDy=0;" edge="1" parent="mvioNwK95yMqdUQ73LqQ-36" source="5R8K-BHqgLehRHtkmt9--4" target="yDPij8MBY7NgReRULdWM-48">
          <mxGeometry relative="1" as="geometry">
            <Array as="points">
              <mxPoint x="1270" y="520" />
              <mxPoint x="1270" y="2060" />
            </Array>
          </mxGeometry>
        </mxCell>
        <mxCell id="5R8K-BHqgLehRHtkmt9--4" value="n &amp;gt; 0 ?" style="rhombus;whiteSpace=wrap;html=1;" vertex="1" parent="mvioNwK95yMqdUQ73LqQ-36">
          <mxGeometry x="260" y="460" width="120" height="120" as="geometry" />
        </mxCell>
        <mxCell id="5R8K-BHqgLehRHtkmt9--11" style="edgeStyle=orthogonalEdgeStyle;rounded=0;orthogonalLoop=1;jettySize=auto;html=1;" edge="1" parent="mvioNwK95yMqdUQ73LqQ-36" source="5R8K-BHqgLehRHtkmt9--7" target="5R8K-BHqgLehRHtkmt9--9">
          <mxGeometry relative="1" as="geometry" />
        </mxCell>
        <mxCell id="5R8K-BHqgLehRHtkmt9--25" style="edgeStyle=orthogonalEdgeStyle;rounded=0;orthogonalLoop=1;jettySize=auto;html=1;entryX=0.5;entryY=0;entryDx=0;entryDy=0;" edge="1" parent="mvioNwK95yMqdUQ73LqQ-36" source="5R8K-BHqgLehRHtkmt9--7" target="5R8K-BHqgLehRHtkmt9--26">
          <mxGeometry relative="1" as="geometry">
            <mxPoint x="590" y="830" as="targetPoint" />
          </mxGeometry>
        </mxCell>
        <mxCell id="5R8K-BHqgLehRHtkmt9--7" value="userInput % 2 != 0?" style="rhombus;whiteSpace=wrap;html=1;" vertex="1" parent="mvioNwK95yMqdUQ73LqQ-36">
          <mxGeometry x="242.5" y="650" width="155" height="130" as="geometry" />
        </mxCell>
        <mxCell id="5R8K-BHqgLehRHtkmt9--12" style="edgeStyle=orthogonalEdgeStyle;rounded=0;orthogonalLoop=1;jettySize=auto;html=1;" edge="1" parent="mvioNwK95yMqdUQ73LqQ-36" source="5R8K-BHqgLehRHtkmt9--9">
          <mxGeometry relative="1" as="geometry">
            <mxPoint x="321" y="1120" as="targetPoint" />
          </mxGeometry>
        </mxCell>
        <mxCell id="5R8K-BHqgLehRHtkmt9--9" value="Display &quot;[&quot;" style="shape=parallelogram;perimeter=parallelogramPerimeter;whiteSpace=wrap;html=1;fixedSize=1;" vertex="1" parent="mvioNwK95yMqdUQ73LqQ-36">
          <mxGeometry x="261" y="960" width="120" height="60" as="geometry" />
        </mxCell>
        <mxCell id="5R8K-BHqgLehRHtkmt9--22" style="edgeStyle=orthogonalEdgeStyle;rounded=0;orthogonalLoop=1;jettySize=auto;html=1;entryX=0.5;entryY=0;entryDx=0;entryDy=0;" edge="1" parent="mvioNwK95yMqdUQ73LqQ-36" source="5R8K-BHqgLehRHtkmt9--13" target="5R8K-BHqgLehRHtkmt9--14">
          <mxGeometry relative="1" as="geometry" />
        </mxCell>
        <mxCell id="5R8K-BHqgLehRHtkmt9--13" value="Display count" style="shape=parallelogram;perimeter=parallelogramPerimeter;whiteSpace=wrap;html=1;fixedSize=1;" vertex="1" parent="mvioNwK95yMqdUQ73LqQ-36">
          <mxGeometry x="261" y="1120" width="120" height="60" as="geometry" />
        </mxCell>
        <mxCell id="5R8K-BHqgLehRHtkmt9--23" style="edgeStyle=orthogonalEdgeStyle;rounded=0;orthogonalLoop=1;jettySize=auto;html=1;" edge="1" parent="mvioNwK95yMqdUQ73LqQ-36" source="5R8K-BHqgLehRHtkmt9--14">
          <mxGeometry relative="1" as="geometry">
            <mxPoint x="321" y="1480" as="targetPoint" />
          </mxGeometry>
        </mxCell>
        <mxCell id="5R8K-BHqgLehRHtkmt9--24" style="edgeStyle=orthogonalEdgeStyle;rounded=0;orthogonalLoop=1;jettySize=auto;html=1;" edge="1" parent="mvioNwK95yMqdUQ73LqQ-36" source="5R8K-BHqgLehRHtkmt9--14" target="5R8K-BHqgLehRHtkmt9--72">
          <mxGeometry relative="1" as="geometry">
            <mxPoint x="101" y="1400" as="targetPoint" />
          </mxGeometry>
        </mxCell>
        <mxCell id="5R8K-BHqgLehRHtkmt9--14" value="userInput % 2 != 0?" style="rhombus;whiteSpace=wrap;html=1;" vertex="1" parent="mvioNwK95yMqdUQ73LqQ-36">
          <mxGeometry x="243.5" y="1230" width="155" height="130" as="geometry" />
        </mxCell>
        <mxCell id="5R8K-BHqgLehRHtkmt9--15" value="Yes" style="text;html=1;align=center;verticalAlign=middle;whiteSpace=wrap;rounded=0;" vertex="1" parent="mvioNwK95yMqdUQ73LqQ-36">
          <mxGeometry x="251" y="1370" width="60" height="30" as="geometry" />
        </mxCell>
        <mxCell id="5R8K-BHqgLehRHtkmt9--16" value="No" style="text;html=1;align=center;verticalAlign=middle;whiteSpace=wrap;rounded=0;" vertex="1" parent="mvioNwK95yMqdUQ73LqQ-36">
          <mxGeometry x="370" y="1240" width="60" height="30" as="geometry" />
        </mxCell>
        <mxCell id="5R8K-BHqgLehRHtkmt9--17" value="No" style="text;html=1;align=center;verticalAlign=middle;whiteSpace=wrap;rounded=0;" vertex="1" parent="mvioNwK95yMqdUQ73LqQ-36">
          <mxGeometry x="370" y="460" width="60" height="30" as="geometry" />
        </mxCell>
        <mxCell id="5R8K-BHqgLehRHtkmt9--19" value="Yes" style="text;html=1;align=center;verticalAlign=middle;whiteSpace=wrap;rounded=0;" vertex="1" parent="mvioNwK95yMqdUQ73LqQ-36">
          <mxGeometry x="210" y="760" width="60" height="30" as="geometry" />
        </mxCell>
        <mxCell id="5R8K-BHqgLehRHtkmt9--20" value="Yes" style="text;html=1;align=center;verticalAlign=middle;whiteSpace=wrap;rounded=0;" vertex="1" parent="mvioNwK95yMqdUQ73LqQ-36">
          <mxGeometry x="260" y="580" width="60" height="30" as="geometry" />
        </mxCell>
        <mxCell id="5R8K-BHqgLehRHtkmt9--21" value="No" style="text;html=1;align=center;verticalAlign=middle;whiteSpace=wrap;rounded=0;" vertex="1" parent="mvioNwK95yMqdUQ73LqQ-36">
          <mxGeometry x="390" y="670" width="60" height="30" as="geometry" />
        </mxCell>
        <mxCell id="5R8K-BHqgLehRHtkmt9--27" style="edgeStyle=orthogonalEdgeStyle;rounded=0;orthogonalLoop=1;jettySize=auto;html=1;" edge="1" parent="mvioNwK95yMqdUQ73LqQ-36" source="5R8K-BHqgLehRHtkmt9--26">
          <mxGeometry relative="1" as="geometry">
            <mxPoint x="777.5" y="990" as="targetPoint" />
          </mxGeometry>
        </mxCell>
        <mxCell id="5R8K-BHqgLehRHtkmt9--26" value="Display &quot;(&quot;" style="shape=parallelogram;perimeter=parallelogramPerimeter;whiteSpace=wrap;html=1;fixedSize=1;" vertex="1" parent="mvioNwK95yMqdUQ73LqQ-36">
          <mxGeometry x="717.5" y="820" width="120" height="60" as="geometry" />
        </mxCell>
        <mxCell id="5R8K-BHqgLehRHtkmt9--29" style="edgeStyle=orthogonalEdgeStyle;rounded=0;orthogonalLoop=1;jettySize=auto;html=1;" edge="1" parent="mvioNwK95yMqdUQ73LqQ-36" source="5R8K-BHqgLehRHtkmt9--28">
          <mxGeometry relative="1" as="geometry">
            <mxPoint x="777.5" y="1170" as="targetPoint" />
          </mxGeometry>
        </mxCell>
        <mxCell id="5R8K-BHqgLehRHtkmt9--28" value="Display count" style="shape=parallelogram;perimeter=parallelogramPerimeter;whiteSpace=wrap;html=1;fixedSize=1;" vertex="1" parent="mvioNwK95yMqdUQ73LqQ-36">
          <mxGeometry x="717.5" y="990" width="120" height="60" as="geometry" />
        </mxCell>
        <mxCell id="5R8K-BHqgLehRHtkmt9--31" style="edgeStyle=orthogonalEdgeStyle;rounded=0;orthogonalLoop=1;jettySize=auto;html=1;" edge="1" parent="mvioNwK95yMqdUQ73LqQ-36" source="5R8K-BHqgLehRHtkmt9--30">
          <mxGeometry relative="1" as="geometry">
            <mxPoint x="777.5" y="1380" as="targetPoint" />
          </mxGeometry>
        </mxCell>
        <mxCell id="5R8K-BHqgLehRHtkmt9--33" style="edgeStyle=orthogonalEdgeStyle;rounded=0;orthogonalLoop=1;jettySize=auto;html=1;" edge="1" parent="mvioNwK95yMqdUQ73LqQ-36" source="5R8K-BHqgLehRHtkmt9--30">
          <mxGeometry relative="1" as="geometry">
            <mxPoint x="1088.5" y="1340" as="targetPoint" />
          </mxGeometry>
        </mxCell>
        <mxCell id="5R8K-BHqgLehRHtkmt9--30" value="userInput % 2 != 0?" style="rhombus;whiteSpace=wrap;html=1;" vertex="1" parent="mvioNwK95yMqdUQ73LqQ-36">
          <mxGeometry x="700" y="1170" width="155" height="130" as="geometry" />
        </mxCell>
        <mxCell id="5R8K-BHqgLehRHtkmt9--80" style="edgeStyle=orthogonalEdgeStyle;rounded=0;orthogonalLoop=1;jettySize=auto;html=1;entryX=0;entryY=0.5;entryDx=0;entryDy=0;" edge="1" parent="mvioNwK95yMqdUQ73LqQ-36" source="5R8K-BHqgLehRHtkmt9--32" target="5R8K-BHqgLehRHtkmt9--79">
          <mxGeometry relative="1" as="geometry">
            <Array as="points">
              <mxPoint x="777" y="1610" />
            </Array>
          </mxGeometry>
        </mxCell>
        <mxCell id="5R8K-BHqgLehRHtkmt9--32" value="Display &quot;]&quot;" style="shape=parallelogram;perimeter=parallelogramPerimeter;whiteSpace=wrap;html=1;fixedSize=1;" vertex="1" parent="mvioNwK95yMqdUQ73LqQ-36">
          <mxGeometry x="717.5" y="1380" width="120" height="60" as="geometry" />
        </mxCell>
        <mxCell id="5R8K-BHqgLehRHtkmt9--81" style="edgeStyle=orthogonalEdgeStyle;rounded=0;orthogonalLoop=1;jettySize=auto;html=1;entryX=1;entryY=0.5;entryDx=0;entryDy=0;" edge="1" parent="mvioNwK95yMqdUQ73LqQ-36" source="5R8K-BHqgLehRHtkmt9--34" target="5R8K-BHqgLehRHtkmt9--79">
          <mxGeometry relative="1" as="geometry">
            <Array as="points">
              <mxPoint x="1087" y="1610" />
            </Array>
          </mxGeometry>
        </mxCell>
        <mxCell id="5R8K-BHqgLehRHtkmt9--34" value="Display &quot;)&quot;" style="shape=parallelogram;perimeter=parallelogramPerimeter;whiteSpace=wrap;html=1;fixedSize=1;" vertex="1" parent="mvioNwK95yMqdUQ73LqQ-36">
          <mxGeometry x="1027.5" y="1340" width="120" height="60" as="geometry" />
        </mxCell>
        <mxCell id="5R8K-BHqgLehRHtkmt9--35" value="Yes" style="text;html=1;align=center;verticalAlign=middle;resizable=0;points=[];autosize=1;strokeColor=none;fillColor=none;" vertex="1" parent="mvioNwK95yMqdUQ73LqQ-36">
          <mxGeometry x="727.5" y="1300" width="40" height="30" as="geometry" />
        </mxCell>
        <mxCell id="5R8K-BHqgLehRHtkmt9--77" style="edgeStyle=orthogonalEdgeStyle;rounded=0;orthogonalLoop=1;jettySize=auto;html=1;" edge="1" parent="mvioNwK95yMqdUQ73LqQ-36" source="5R8K-BHqgLehRHtkmt9--72" target="5R8K-BHqgLehRHtkmt9--76">
          <mxGeometry relative="1" as="geometry">
            <Array as="points">
              <mxPoint x="540" y="1620" />
            </Array>
          </mxGeometry>
        </mxCell>
        <mxCell id="5R8K-BHqgLehRHtkmt9--72" value="Display &quot;)&quot;" style="shape=parallelogram;perimeter=parallelogramPerimeter;whiteSpace=wrap;html=1;fixedSize=1;" vertex="1" parent="mvioNwK95yMqdUQ73LqQ-36">
          <mxGeometry x="480" y="1390" width="120" height="60" as="geometry" />
        </mxCell>
        <mxCell id="5R8K-BHqgLehRHtkmt9--78" style="edgeStyle=orthogonalEdgeStyle;rounded=0;orthogonalLoop=1;jettySize=auto;html=1;entryX=0;entryY=0.5;entryDx=0;entryDy=0;" edge="1" parent="mvioNwK95yMqdUQ73LqQ-36" source="5R8K-BHqgLehRHtkmt9--73" target="5R8K-BHqgLehRHtkmt9--76">
          <mxGeometry relative="1" as="geometry">
            <Array as="points">
              <mxPoint x="320" y="1620" />
            </Array>
          </mxGeometry>
        </mxCell>
        <mxCell id="5R8K-BHqgLehRHtkmt9--73" value="Display &quot;]&quot;" style="shape=parallelogram;perimeter=parallelogramPerimeter;whiteSpace=wrap;html=1;fixedSize=1;" vertex="1" parent="mvioNwK95yMqdUQ73LqQ-36">
          <mxGeometry x="261" y="1480" width="120" height="60" as="geometry" />
        </mxCell>
        <mxCell id="5R8K-BHqgLehRHtkmt9--74" value="No" style="text;html=1;align=center;verticalAlign=middle;whiteSpace=wrap;rounded=0;" vertex="1" parent="mvioNwK95yMqdUQ73LqQ-36">
          <mxGeometry x="837.5" y="1190" width="60" height="30" as="geometry" />
        </mxCell>
        <mxCell id="5R8K-BHqgLehRHtkmt9--85" style="edgeStyle=orthogonalEdgeStyle;rounded=0;orthogonalLoop=1;jettySize=auto;html=1;" edge="1" parent="mvioNwK95yMqdUQ73LqQ-36" source="5R8K-BHqgLehRHtkmt9--75">
          <mxGeometry relative="1" as="geometry">
            <mxPoint x="320.0000000000002" y="430" as="targetPoint" />
            <Array as="points">
              <mxPoint x="90" y="1830" />
              <mxPoint x="90" y="430" />
            </Array>
          </mxGeometry>
        </mxCell>
        <mxCell id="5R8K-BHqgLehRHtkmt9--75" value="" style="ellipse;whiteSpace=wrap;html=1;aspect=fixed;" vertex="1" parent="mvioNwK95yMqdUQ73LqQ-36">
          <mxGeometry x="430" y="1810" width="40" height="40" as="geometry" />
        </mxCell>
        <mxCell id="5R8K-BHqgLehRHtkmt9--84" style="edgeStyle=orthogonalEdgeStyle;rounded=0;orthogonalLoop=1;jettySize=auto;html=1;entryX=0.5;entryY=0;entryDx=0;entryDy=0;" edge="1" parent="mvioNwK95yMqdUQ73LqQ-36" source="5R8K-BHqgLehRHtkmt9--76" target="5R8K-BHqgLehRHtkmt9--75">
          <mxGeometry relative="1" as="geometry" />
        </mxCell>
        <mxCell id="5R8K-BHqgLehRHtkmt9--76" value="" style="ellipse;whiteSpace=wrap;html=1;aspect=fixed;" vertex="1" parent="mvioNwK95yMqdUQ73LqQ-36">
          <mxGeometry x="430" y="1600" width="40" height="40" as="geometry" />
        </mxCell>
        <mxCell id="5R8K-BHqgLehRHtkmt9--82" style="edgeStyle=orthogonalEdgeStyle;rounded=0;orthogonalLoop=1;jettySize=auto;html=1;entryX=1;entryY=0.5;entryDx=0;entryDy=0;" edge="1" parent="mvioNwK95yMqdUQ73LqQ-36" source="5R8K-BHqgLehRHtkmt9--79" target="5R8K-BHqgLehRHtkmt9--75">
          <mxGeometry relative="1" as="geometry">
            <Array as="points">
              <mxPoint x="960" y="1830" />
            </Array>
          </mxGeometry>
        </mxCell>
        <mxCell id="5R8K-BHqgLehRHtkmt9--79" value="" style="ellipse;whiteSpace=wrap;html=1;aspect=fixed;" vertex="1" parent="mvioNwK95yMqdUQ73LqQ-36">
          <mxGeometry x="940" y="1590" width="40" height="40" as="geometry" />
        </mxCell>
        <mxCell id="5R8K-BHqgLehRHtkmt9--86" value="count++&lt;div&gt;n--&lt;/div&gt;" style="rounded=0;whiteSpace=wrap;html=1;" vertex="1" parent="mvioNwK95yMqdUQ73LqQ-36">
          <mxGeometry x="30" y="1530" width="120" height="60" as="geometry" />
        </mxCell>
      </root>
    </mxGraphModel>
  </diagram>
</mxfile>
